<?xml version="1.0" encoding="UTF-8" standalone="no"?>
<svg
   viewBox="0 302.1 150.39999 170.7"
   version="1.1"
   id="svg4"
   sodipodi:docname="Shopify_logo_icon_black.svg"
   inkscape:version="1.3.2 (091e20e, 2023-11-25, custom)"
   width="150.39999"
   height="170.7"
   xmlns:inkscape="http://www.inkscape.org/namespaces/inkscape"
   xmlns:sodipodi="http://sodipodi.sourceforge.net/DTD/sodipodi-0.dtd"
   xmlns="http://www.w3.org/2000/svg"
   xmlns:svg="http://www.w3.org/2000/svg">
  <defs
     id="defs4" />
  <sodipodi:namedview
     id="namedview4"
     pagecolor="#ffffff"
     bordercolor="#000000"
     borderopacity="0.25"
     inkscape:showpageshadow="2"
     inkscape:pageopacity="0.0"
     inkscape:pagecheckerboard="0"
     inkscape:deskcolor="#d1d1d1"
     inkscape:zoom="1.7091503"
     inkscape:cx="306"
     inkscape:cy="89.810707"
     inkscape:window-width="1920"
     inkscape:window-height="1017"
     inkscape:window-x="1672"
     inkscape:window-y="-8"
     inkscape:window-maximized="1"
     inkscape:current-layer="svg4" />
  <path
     fill="#95bf47"
     d="m 131.6,335.3 c -0.1,-0.9 -0.9,-1.3 -1.5,-1.3 -0.6,0 -13.7,-1 -13.7,-1 0,0 -9.1,-9.1 -10.2,-10 -1,-1 -2.9,-0.7 -3.7,-0.5 -0.1,0 -2,0.6 -5.1,1.6 -3.1,-8.9 -8.4,-17 -17.9,-17 h -0.9 c -2.6,-3.4 -6,-5 -8.8,-5 -22,0 -32.6,27.5 -35.9,41.5 -8.6,2.7 -14.7,4.5 -15.4,4.8 -4.8,1.5 -4.9,1.6 -5.5,6.1 -0.5,3.4 -13,100.1 -13,100.1 l 97.3,18.2 52.8,-11.4 c 0.1,-0.2 -18.4,-125.2 -18.5,-126.1 z M 92,325.5 c -2.4,0.7 -5.3,1.6 -8.2,2.6 v -1.8 c 0,-5.4 -0.7,-9.8 -2,-13.3 5,0.6 8.1,6.1 10.2,12.5 z M 75.7,314.1 c 1.3,3.4 2.2,8.2 2.2,14.8 v 1 c -5.4,1.7 -11.1,3.4 -17,5.3 3.3,-12.6 9.6,-18.8 14.8,-21.1 z m -6.4,-6.2 c 1,0 2,0.4 2.8,1 -7.1,3.3 -14.6,11.6 -17.7,28.4 -4.7,1.5 -9.2,2.8 -13.5,4.2 3.6,-12.8 12.6,-33.6 28.4,-33.6 z"
     id="path1"
     style="fill:#000000;fill-opacity:1" />
  <path
     fill="#5e8e3e"
     d="m 130.1,333.8 c -0.6,0 -13.7,-1 -13.7,-1 0,0 -9.1,-9.1 -10.2,-10 -0.4,-0.4 -0.9,-0.6 -1.3,-0.6 l -7.3,150.6 52.8,-11.4 c 0,0 -18.5,-125.2 -18.6,-126.1 -0.4,-0.9 -1.1,-1.3 -1.7,-1.5 z"
     id="path2"
     style="fill:#000000;fill-opacity:1;stroke:#ffffff;stroke-opacity:1" />
  <path
     fill="#ffffff"
     d="m 79.5,363 -6.4,19.3 c 0,0 -5.8,-3.1 -12.7,-3.1 -10.3,0 -10.8,6.5 -10.8,8.1 0,8.8 23,12.2 23,32.9 0,16.3 -10.3,26.8 -24.2,26.8 -16.8,0 -25.2,-10.4 -25.2,-10.4 l 4.5,-14.8 c 0,0 8.8,7.6 16.2,7.6 4.9,0 6.9,-3.8 6.9,-6.6 0,-11.5 -18.8,-12 -18.8,-31 0,-15.9 11.4,-31.3 34.5,-31.3 8.6,-0.1 13,2.5 13,2.5 z"
     id="path3" />
</svg>
