<?xml version="1.0" encoding="UTF-8" standalone="no"?>
<!-- Created with Inkscape (http://www.inkscape.org/) -->

<svg
   width="15mm"
   height="15mm"
   viewBox="0 0 15 15"
   version="1.1"
   id="svg1"
   inkscape:version="1.3.2 (091e20e, 2023-11-25, custom)"
   sodipodi:docname="logo.svg"
   inkscape:export-filename="..\..\..\assets\logos\free-the-people\logo-white-bg.jpg"
   inkscape:export-xdpi="96"
   inkscape:export-ydpi="96"
   xmlns:inkscape="http://www.inkscape.org/namespaces/inkscape"
   xmlns:sodipodi="http://sodipodi.sourceforge.net/DTD/sodipodi-0.dtd"
   xmlns="http://www.w3.org/2000/svg"
   xmlns:svg="http://www.w3.org/2000/svg"
   xmlns:rdf="http://www.w3.org/1999/02/22-rdf-syntax-ns#"
   xmlns:cc="http://creativecommons.org/ns#">
  <sodipodi:namedview
     id="namedview1"
     pagecolor="#ffffff"
     bordercolor="#000000"
     borderopacity="0.25"
     inkscape:showpageshadow="2"
     inkscape:pageopacity="0.0"
     inkscape:pagecheckerboard="0"
     inkscape:deskcolor="#d1d1d1"
     inkscape:document-units="mm"
     inkscape:zoom="30.196237"
     inkscape:cx="47.688061"
     inkscape:cy="39.160508"
     inkscape:window-width="1920"
     inkscape:window-height="1017"
     inkscape:window-x="1672"
     inkscape:window-y="-8"
     inkscape:window-maximized="1"
     inkscape:current-layer="svg1" />
  <defs
     id="defs1" />
  <path
     d="m 8.2956177,0.77101237 c -0.7002572,0 -1.2902779,0.30487213 -1.7694011,0.91415613 -0.4717523,0.6092838 -0.7886817,1.4165641 -0.9508463,2.4225911 0,0.070847 0.011476,0.1204894 0.03359,0.1488281 0.021983,0.028171 0.043649,0.021168 0.065629,-0.02067 V 4.2354004 C 5.6683577,4.2099648 5.6647705,4.1795483 5.6647705,4.141866 5.822523,3.1525132 6.130863,2.3582513 6.5897786,1.7590658 7.0558653,1.1598802 7.6294003,0.8604126 8.3106038,0.8604126 c 0.2653117,0 0.5305064,0.0279776 0.7958171,0.0837158 0.2724817,0.0557382 0.5487206,0.1251656 0.8283732,0.2087728 0.2796519,0.069673 0.5664189,0.1463529 0.8604129,0.2299601 0.301164,0.083607 0.613176,0.1535511 0.93586,0.2092896 0.02868,0.041804 0.03236,0.1112311 0.01085,0.2087728 -0.02151,0.083607 -0.05781,0.1742763 -0.108004,0.271818 -0.03523,0.068469 -0.07955,0.1310356 -0.129191,0.1901693 -0.01034,0.012328 -0.019,0.025808 -0.02997,0.037724 0.02281,-0.016605 0.04639,-0.036431 0.07131,-0.063045 0.06634,-0.070847 0.121655,-0.148561 0.165882,-0.2335775 0.0516,-0.099186 0.08847,-0.1914524 0.110587,-0.2764689 0.02211,-0.099186 0.01863,-0.169882 -0.01085,-0.2123901 C 11.479985,1.4584751 11.159054,1.3872624 10.849467,1.3022461 10.547252,1.2172298 10.252757,1.1395157 9.9652832,1.0686686 9.6778084,0.98365228 9.3937584,0.91295606 9.1136556,0.85627848 8.8409236,0.79960092 8.5683495,0.77101237 8.2956177,0.77101237 Z M 9.7410075,2.2412069 C 9.4411887,2.5274214 9.1948984,2.9081139 9.003068,3.3853231 8.932269,3.5574431 8.8661972,3.7576269 8.8025635,3.9734009 c 0.034627,-0.1079826 0.070234,-0.2098042 0.1069702,-0.304891 0.00945,-0.026987 0.019343,-0.050881 0.028939,-0.076998 2.049e-4,-5.152e-4 3.117e-4,-0.00104 5.168e-4,-0.00155 0.01979,-0.053811 0.039556,-0.1085358 0.059945,-0.1586467 0.199245,-0.5010712 0.4592356,-0.8932881 0.7782471,-1.1802897 -0.01224,-0.00345 -0.023958,-0.00639 -0.036174,-0.00982 z M 9.5782267,3.1088542 c -0.00658,0.017653 -0.013688,0.03228 -0.020154,0.050643 C 9.4720264,3.4242534 9.3899361,3.7589515 9.3110596,4.1630534 9.2393539,4.5532207 9.1641101,5.0340255 9.0852336,5.6053426 9.0350398,5.925837 8.9882142,6.2392932 8.9451904,6.5458537 8.9021667,6.8524132 8.8521757,7.1451453 8.794812,7.4238363 h 0.00258 C 8.8545704,7.1466603 8.9046233,6.8561935 8.9477743,6.5520549 8.9920011,6.2403281 9.0398369,5.9214197 9.0914347,5.5955241 9.1725175,5.0145795 9.2502679,4.5262067 9.3239787,4.1294637 9.4050613,3.7185512 9.4897731,3.3780725 9.5782267,3.1088542 Z m 0.3451986,4.3361694 c 0.0082,0.010642 0.012636,0.02236 0.014986,0.034623 7.11e-5,3.748e-4 4.502e-4,6.576e-4 5.167e-4,0.00103 2.702e-4,0.00153 3.368e-4,0.0031 5.168e-4,0.00465 3.08e-5,6.908e-4 -6.45e-5,0.00138 0,0.00207 0.00116,0.012879 3.569e-4,0.026227 -0.00465,0.040824 -0.00358,0.013934 -0.013364,0.027896 -0.029456,0.041858 -0.016092,0.013962 -0.038497,0.027923 -0.067179,0.041858 -0.1864351,0.013935 -0.3695397,0.027406 -0.5488037,0.041341 -0.089632,0 -0.1795625,0.00161 -0.2692342,0.00517 -0.089672,0.00355 -0.1790853,0.00905 -0.2687175,0.01602 C 8.7034964,7.9304956 8.6539604,8.1768035 8.603093,8.4170579 8.652896,8.1842819 8.701951,7.947555 8.7488206,7.699789 8.9330988,7.68562 9.1174802,7.678602 9.3017584,7.678602 9.4860366,7.664433 9.6738991,7.650397 9.8655483,7.636227 9.9245183,7.607888 9.9579113,7.5793 9.9652833,7.550961 9.9800253,7.508453 9.9685533,7.473362 9.9316933,7.4450243 Z m -3.435966,0.1462443 c -0.00902,9e-4 -0.018374,0.00166 -0.027389,0.00258 -0.036855,0.014169 -0.088173,0.04926 -0.1545125,0.1059367 -0.066341,0.042509 -0.1291336,0.092151 -0.1881022,0.1488281 -0.051599,0.056678 -0.092472,0.1133377 -0.1219564,0.1700155 -0.029485,0.042508 -0.032965,0.071097 -0.010852,0.085266 C 6.3237191,8.0047122 6.6700457,7.9264778 7.0238603,7.8698 7.3735699,7.813779 7.7346422,7.772035 8.1059648,7.7437095 c 0.0014,-0.00863 0.00273,-0.016148 0.00413,-0.024805 C 7.7545491,7.7467405 7.4086123,7.7871081 7.0734701,7.8413818 6.7292827,7.8971196 6.3925249,7.9738005 6.062679,8.071342 6.0411674,8.057407 6.0448488,8.0299467 6.0735311,7.9881429 6.1022133,7.9324042 6.1416754,7.87645 6.1918701,7.8207113 6.2492338,7.7649735 6.3097533,7.7162707 6.3742879,7.674467 c 0.04463,-0.038546 0.0801,-0.063132 0.1111044,-0.081649 1.624e-4,-9.68e-5 3.545e-4,-4.203e-4 5.167e-4,-5.168e-4 4.18e-4,-2.471e-4 0.00113,-7.923e-4 0.00155,-0.00103 z M 3.8173381,9.3792725 c -0.2801033,0.24088 -0.497363,0.5738229 -0.6521566,0.9989055 -0.1474226,0.425081 -0.2211752,0.885382 -0.2211752,1.381311 0,0.850163 0.1440239,1.516052 0.4314983,1.997811 0.2948451,0.481759 0.7074462,0.722953 1.2381673,0.722953 0.9508754,0 1.7651175,-0.545549 2.4432617,-1.636593 0.3523796,-0.560834 0.6725069,-1.289308 0.9606649,-2.179711 -0.068502,0.210574 -0.1391616,0.411619 -0.2113566,0.603064 v 5.16e-4 c -0.072195,0.19142 -0.1463198,0.372894 -0.2222087,0.545187 v 5.16e-4 c -0.151843,0.344687 -0.3113621,0.651198 -0.478007,0.919324 -0.6596927,1.072961 -1.4521126,1.609721 -2.3771159,1.609721 -0.5162807,0 -0.917755,-0.237293 -1.2045776,-0.711068 -0.2796525,-0.473774 -0.4196126,-1.128664 -0.4196126,-1.964738 0,-0.487708 0.071562,-0.940537 0.2149739,-1.358573 0.029473,-0.08182 0.061976,-0.159213 0.096118,-0.234094 3.111e-4,-6.82e-4 7.221e-4,-0.0014 0.00103,-0.0021 0.00313,-0.0069 0.00619,-0.01376 0.0093,-0.02067 0.0031,-0.0066 0.00616,-0.01356 0.0093,-0.02015 0.032792,-0.068857 0.068019,-0.1341113 0.1049032,-0.1968869 7.644e-4,-0.0013 0.0013,-0.00284 0.00207,-0.00413 0.00832,-0.01409 0.016796,-0.028076 0.025322,-0.041858 3.332e-4,-5.389e-4 7e-4,-0.00101 0.00103,-0.00155 0.037546,-0.060613 0.076782,-0.1184623 0.118339,-0.173116 1.424e-4,-1.872e-4 3.744e-4,-3.296e-4 5.168e-4,-5.168e-4 0.00404,-0.00531 0.00825,-0.010359 0.012402,-0.015503 0.00626,-0.00807 0.012767,-0.015835 0.01912,-0.023771 0.044287,-0.055322 0.089863,-0.1087438 0.1384929,-0.1576131 5.07e-4,-5.1e-4 0.00104,-0.00104 0.00155,-0.00155 6.771e-4,-6.788e-4 0.00139,-0.00139 0.00207,-0.00207 -0.012397,-0.019877 -0.02643,-0.033073 -0.043925,-0.033073 z"
     style="font-weight:bold;font-size:153.298px;font-family:Tangerine;-inkscape-font-specification:Tangerine;text-align:center;letter-spacing:0px;text-anchor:middle;fill:#1a1a1a;stroke-width:0.22967"
     id="path9" />
  <path
     d="m 8.3106038,0.8604126 c -0.6812042,0 -1.254738,0.299467 -1.7208252,0.8986532 -0.458916,0.5991861 -0.7672554,1.3934464 -0.9250081,2.3828002 0,0.069673 0.010528,0.1183751 0.032039,0.1462444 0.012612,0.016339 0.025095,0.01943 0.037724,0.011885 -4.4e-4,-0.00888 -0.00207,-0.015067 -0.00207,-0.024805 C 5.8841523,3.323888 6.1805514,2.5599997 6.621818,1.9838582 7.0699797,1.4077169 7.6214924,1.1198283 8.2764974,1.1198283 c 0.2551072,0 0.5102197,0.026504 0.765328,0.080099 0.2620021,0.053594 0.5274365,0.1206294 0.7963338,0.2010213 0.2688958,0.066993 0.5451688,0.1407834 0.8278568,0.2211751 0.28958,0.080392 0.589425,0.1474268 0.899686,0.2010213 0.01379,0.020098 0.02153,0.047108 0.02326,0.080615 0.0017,0.033507 -0.0026,0.073511 -0.01292,0.1204061 -0.01034,0.040196 -0.02412,0.082105 -0.04134,0.1255737 -0.01722,0.043469 -0.03788,0.088497 -0.06201,0.1353922 -0.0075,0.01455 -0.01713,0.027742 -0.02532,0.041858 0.0084,-0.00809 0.01667,-0.014946 0.02532,-0.024288 0.06454,-0.069673 0.118206,-0.1463528 0.16123,-0.2299601 0.05019,-0.097542 0.08649,-0.1882107 0.108004,-0.271818 0.02151,-0.097542 0.01783,-0.1669692 -0.01085,-0.2087728 C 11.408383,1.5364124 11.096371,1.4664688 10.795207,1.3828613 10.501212,1.299254 10.214446,1.2225741 9.9347941,1.1529012 9.6551413,1.0692939 9.3789029,0.9998667 9.1064209,0.94412842 8.8411099,0.88839014 8.5759158,0.8604126 8.3106038,0.8604126 Z M 9.777181,2.2510254 C 9.4581692,2.5380273 9.1981791,2.9302434 8.9989339,3.4313151 8.978545,3.481426 8.9587792,3.5361507 8.9389893,3.5899618 c 0.012052,-0.030276 0.024924,-0.058888 0.037724,-0.08785 0.00795,-0.018735 0.016149,-0.037404 0.024288,-0.055811 0.010006,-0.022628 0.019199,-0.046552 0.029455,-0.06873 1.657e-4,-3.565e-4 3.511e-4,-6.771e-4 5.168e-4,-0.00103 0.031832,-0.068432 0.065233,-0.1347627 0.099736,-0.1984375 1.868e-4,-3.448e-4 3.299e-4,-6.888e-4 5.168e-4,-0.00103 0.00368,-0.00679 0.0075,-0.013179 0.011369,-0.019637 0.00629,-0.011406 0.013265,-0.021822 0.019637,-0.033073 0.025176,-0.044448 0.049957,-0.089219 0.076481,-0.1312581 1.301e-4,-2.062e-4 3.866e-4,-3.107e-4 5.167e-4,-5.168e-4 0.03726,-0.058969 0.075823,-0.1158201 0.1157552,-0.1700155 1.459e-4,-1.98e-4 3.709e-4,-3.188e-4 5.168e-4,-5.167e-4 0.04008,-0.054372 0.081256,-0.1059849 0.1240234,-0.1555461 0.037593,-0.043589 0.076633,-0.084689 0.116272,-0.1245402 0.014431,-0.014503 0.02922,-0.028363 0.043925,-0.042375 0.0288,-0.027447 0.057996,-0.054024 0.08785,-0.079582 0.013013,-0.01114 0.026062,-0.022291 0.039274,-0.033073 C 9.810494,2.3513239 9.854827,2.3168589 9.900688,2.2851373 9.8587334,2.2730534 9.8187921,2.2627579 9.777181,2.2510254 Z M 9.6541911,2.9161011 c -0.027737,0.052855 -0.054907,0.1107079 -0.081649,0.1715657 -4.878e-4,0.00111 -0.00106,0.00199 -0.00155,0.0031 -0.00407,0.00941 -0.00784,0.018293 -0.011886,0.027905 -0.0281,0.065892 -0.0559,0.1358079 -0.082682,0.2118734 C 9.3936863,3.5851202 9.3145553,3.9067844 9.2387126,4.2953451 9.1697647,4.6705069 9.0969975,5.1324794 9.0211548,5.6818237 8.9728919,5.9899918 8.9281649,6.2913912 8.8867961,6.5861613 8.8454271,6.8809314 8.7972598,7.1625816 8.7421021,7.4305542 h 1.0650512 c 0.034476,0.026797 0.044795,0.060056 0.031006,0.1002523 -0.00345,0.013399 -0.012925,0.026853 -0.028422,0.040308 -0.015498,0.013454 -0.037017,0.026909 -0.064595,0.040308 -0.1792644,0.013398 -0.3547292,0.02691 -0.5270996,0.040308 -0.086185,0 -0.1721545,0.00142 -0.2583822,0.00465 -0.086228,0.00323 -0.1727143,0.00829 -0.2588989,0.014986 C 8.6533021,7.9249891 8.6039048,8.1680739 8.5534831,8.4062052 8.5418266,8.461224 8.5296426,8.5147956 8.5178263,8.568986 8.4758096,8.7617968 8.4331923,8.9494177 8.389152,9.1317424 8.3781639,9.1772087 8.3671931,9.2233539 8.3560791,9.2681681 8.3013249,9.4890535 8.2454566,9.7049717 8.1876139,9.9099894 7.8757394,11.015399 7.5191886,11.890342 7.1184285,12.535152 c -0.634321,1.031695 -1.3962198,1.547709 -2.2856486,1.547709 -0.4964248,0 -0.8827937,-0.227608 -1.1585856,-0.683162 -0.268897,-0.455554 -0.4030761,-1.085372 -0.4030761,-1.88929 0,-0.468953 0.06881,-0.90442 0.2067057,-1.306381 0.029723,-0.08251 0.062482,-0.160466 0.097152,-0.2356442 0.00354,-0.00767 0.00674,-0.01566 0.010335,-0.023254 0.033481,-0.070848 0.069527,-0.1378566 0.107487,-0.2020549 0.00608,-0.010276 0.012408,-0.020384 0.018604,-0.030489 0.039008,-0.063669 0.079947,-0.1244804 0.1235066,-0.1813842 0.0042,-0.00549 0.00868,-0.010596 0.012919,-0.01602 C 3.8938131,9.4563858 3.9415673,9.400187 3.9925212,9.3487834 3.9815655,9.3340723 3.9689958,9.325529 3.9542806,9.325529 3.6817987,9.562416 3.4702761,9.8898606 3.319694,10.307898 c -0.1434117,0.418036 -0.2149739,0.870864 -0.2149739,1.358573 0,0.836075 0.1399598,1.490963 0.4196126,1.964738 0.2868229,0.473775 0.6882964,0.711068 1.2045776,0.711068 0.9250043,0 1.7174225,-0.536759 2.3771159,-1.609721 C 7.7728896,11.659595 8.3211696,9.9736698 8.7514038,7.674467 8.9306682,7.660532 9.1100911,7.65328 9.2893555,7.65328 9.4686197,7.639345 9.651724,7.625874 9.8381592,7.611939 9.8955242,7.58407 9.9276232,7.556092 9.9347942,7.528223 9.9491352,7.486419 9.9380942,7.451706 9.9022382,7.4238366 H 8.794812 C 8.8521758,7.145145 8.9021666,6.8524135 8.9451904,6.5458537 8.9882142,6.2392929 9.0350398,5.9258374 9.0852336,5.6053426 9.1641102,5.034025 9.2393538,4.5532211 9.3110596,4.1630534 9.3899362,3.7589511 9.4720263,3.4242536 9.5580729,3.1594971 c 0.031042,-0.088164 0.06347,-0.1676272 0.096118,-0.243396 z m -1.5012004,4.529956 c -0.5563978,0.027867 -1.0991228,0.06923 -1.6278076,0.1240235 -0.035853,0.013935 -0.086359,0.048648 -0.1508952,0.1043864 -0.064535,0.041804 -0.125054,0.090507 -0.1824178,0.1462443 -0.050195,0.055739 -0.089657,0.1116928 -0.118339,0.1674316 -0.028682,0.041804 -0.032364,0.069264 -0.010852,0.083199 0.3298463,-0.097542 0.6666033,-0.1742224 1.0107911,-0.2299602 0.3351426,-0.054274 0.6810786,-0.094641 1.0366292,-0.1224731 4e-4,-0.00251 6.07e-4,-0.00471 0.00103,-0.00723 C 7.7594989,7.7384709 7.4183727,7.779002 7.0874227,7.8325968 6.9219478,7.8593938 6.7579739,7.8909401 6.5959798,7.9276815 6.4339855,7.9644229 6.2739695,8.0063599 6.115389,8.0532552 6.094705,8.0398562 6.0981449,8.0133527 6.1257243,7.9731567 6.1533032,7.9195619 6.1911486,7.8660379 6.2394124,7.812443 6.2945713,7.7588482 6.3530595,7.7115622 6.4151123,7.6713664 6.4771651,7.6177725 6.5253324,7.5845131 6.5598063,7.5711141 7.0769158,7.5175192 7.6077855,7.477505 8.152474,7.450708 c 2.4e-4,-0.00149 2.767e-4,-0.00316 5.167e-4,-0.00465 z"
     style="font-weight:bold;font-size:149.94px;font-family:Tangerine;-inkscape-font-specification:Tangerine;text-align:center;letter-spacing:0px;text-anchor:middle;fill:#f9f9f9;stroke-width:0.22464"
     id="path8" />
  <path
     d="m 8.2764974,1.1198283 c -0.6550056,0 -1.2065172,0.287888 -1.6546794,0.8640299 -0.441267,0.5761421 -0.7376655,1.3400289 -0.8893514,2.291333 0,0.066993 0.010321,0.1137628 0.031006,0.1405599 0.020685,0.026797 0.041327,0.020042 0.062012,-0.020154 C 5.9840644,3.4710908 6.2322962,2.8210079 6.5701416,2.4458455 6.907987,2.0572847 7.3356407,1.8634521 7.8527507,1.8634521 c 0.3102662,0 0.6341884,0.046769 0.9720336,0.1405599 0.3447404,0.080392 0.703584,0.1739306 1.0759034,0.2811198 C 9.4938945,2.5665036 9.1728961,3.0019714 8.9384725,3.591512 8.7040489,4.1676541 8.5113821,4.9985756 8.3596965,6.0838664 8.3252225,6.3250418 8.2903008,6.559405 8.2558268,6.7871826 8.221353,7.0149592 8.1869478,7.2363294 8.152474,7.450708 7.607785,7.477505 7.0769163,7.5175191 6.5598063,7.5711141 6.5253323,7.5845131 6.4771651,7.6177724 6.4151123,7.6713664 6.3530595,7.7115622 6.2945714,7.7588482 6.2394124,7.812443 6.1911486,7.866038 6.1533033,7.9195619 6.1257243,7.9731567 6.0981449,8.0133527 6.094705,8.0398562 6.115389,8.0532552 6.4325504,7.9594644 6.7564723,7.8861908 7.0874227,7.8325968 7.4183731,7.779002 7.7594986,7.738471 8.1111328,7.711674 7.9249732,8.8639576 7.7421105,9.8086836 7.5628459,10.54561 7.3835811,11.282535 7.1909144,11.865582 6.9840698,12.29434 6.7772262,12.709699 6.5461963,12.997585 6.2910889,13.15837 6.0428763,13.319153 5.7533588,13.399699 5.422408,13.399699 c -0.2895813,0 -0.5378135,-0.06028 -0.7446573,-0.180868 C 4.4709066,13.098245 4.3018061,12.930397 4.1708049,12.71602 4.0398034,12.488242 3.9434698,12.233614 3.8814168,11.952242 3.8193636,11.657471 3.7883993,11.336323 3.7883993,10.98796 c 0,-0.388561 0.027524,-0.690476 0.082682,-0.904855 0.062054,-0.2277756 0.1549465,-0.4351189 0.2790528,-0.6227005 0.01379,-0.040196 0.01379,-0.080727 0,-0.1209229 C 4.1363451,9.2858866 4.1157011,9.2593836 4.0881221,9.2593836 3.8261192,9.4871602 3.622614,9.8020699 3.4778234,10.204029 3.3399273,10.60599 3.2711177,11.041456 3.2711177,11.51041 c 0,0.803919 0.1341788,1.433735 0.4030761,1.88929 0.2757922,0.455554 0.6621603,0.683162 1.1585856,0.683162 0.8894297,0 1.651327,-0.516014 2.2856486,-1.547709 0.6412168,-1.031697 1.1686452,-2.6530085 1.5823324,-4.8637861 0.1723706,-0.013398 0.3449115,-0.019637 0.5172811,-0.019637 0.1723706,-0.013398 0.347835,-0.02691 0.5270996,-0.040308 0.055158,-0.026798 0.086123,-0.053817 0.093018,-0.080615 0.013789,-0.040196 0.00347,-0.073455 -0.031006,-0.1002523 H 8.7421021 C 8.7972599,7.1625814 8.8454271,6.8809317 8.8867961,6.5861613 8.9281649,6.2913909 8.9728918,5.9899921 9.0211548,5.6818237 9.0969976,5.1324789 9.1697646,4.6705073 9.2387126,4.2953451 9.3145554,3.906784 9.3936862,3.5851204 9.4764242,3.3305461 9.566056,3.0759716 9.6623894,2.8748671 9.7658122,2.7274821 9.876128,2.5666984 10.003944,2.4461389 10.148735,2.3657471 c 0.165473,0.053595 0.330617,0.1003638 0.496093,0.1405599 0.17237,0.040196 0.34147,0.073972 0.506946,0.100769 0.04826,0 0.103312,-0.033776 0.165365,-0.100769 0.06205,-0.066993 0.114177,-0.1407831 0.155546,-0.2211752 0.04826,-0.093791 0.08267,-0.1805741 0.103353,-0.2609659 0.02069,-0.093791 0.01724,-0.1608253 -0.01034,-0.2010214 C 11.255441,1.76955 10.955596,1.7025151 10.666016,1.6221232 10.383328,1.5417314 10.107056,1.4679413 9.8381592,1.4009481 9.5692616,1.3205562 9.3038278,1.2535213 9.0418254,1.1999268 8.7867168,1.1463321 8.5316048,1.1198283 8.2764974,1.1198283 Z"
     style="font-weight:bold;font-size:144.173px;font-family:Tangerine;-inkscape-font-specification:Tangerine;text-align:center;letter-spacing:0px;text-anchor:middle;stroke-width:0.216"
     id="path7" />
  <metadata
     id="metadata1">
    <rdf:RDF>
      <cc:Work
         rdf:about="">
        <cc:license
           rdf:resource="http://creativecommons.org/licenses/by-sa/4.0/" />
      </cc:Work>
      <cc:License
         rdf:about="http://creativecommons.org/licenses/by-sa/4.0/">
        <cc:permits
           rdf:resource="http://creativecommons.org/ns#Reproduction" />
        <cc:permits
           rdf:resource="http://creativecommons.org/ns#Distribution" />
        <cc:requires
           rdf:resource="http://creativecommons.org/ns#Notice" />
        <cc:requires
           rdf:resource="http://creativecommons.org/ns#Attribution" />
        <cc:permits
           rdf:resource="http://creativecommons.org/ns#DerivativeWorks" />
        <cc:requires
           rdf:resource="http://creativecommons.org/ns#ShareAlike" />
      </cc:License>
    </rdf:RDF>
  </metadata>
</svg>
